<svg height="504pt" viewBox="-9 0 504 504.20657" width="504pt" xmlns="http://www.w3.org/2000/svg"><path d="m150.871094 218.832031c0-27.816406-22.546875-50.363281-50.363282-50.363281-27.8125 0-50.359374 22.546875-50.359374 50.363281 0 27.8125 22.546874 50.359375 50.359374 50.359375 27.804688-.027344 50.335938-22.558594 50.363282-50.359375zm-83.933594 0c0-18.542969 15.03125-33.574219 33.570312-33.574219 18.542969 0 33.574219 15.03125 33.574219 33.574219 0 18.539063-15.03125 33.570313-33.574219 33.570313-8.902343 0-17.441406-3.535156-23.738281-9.832032-6.296875-6.296874-9.832031-14.835937-9.832031-23.738281zm0 0"/><path d="m352.3125 474.832031c-.015625 11.945313 7.210938 22.707031 18.277344 27.210938 11.0625 4.5 23.753906 1.847656 32.082031-6.714844 8.332031 8.5625 21.019531 11.214844 32.085937 6.714844 11.0625-4.503907 18.292969-15.265625 18.277344-27.210938v-89.675781c2.6875.992188 5.527344 1.515625 8.390625 1.542969 13.910157 0 25.183594-11.273438 25.183594-25.179688v-50.363281c0-18.539062-15.03125-33.570312-33.574219-33.570312h-100.722656c-9.679688.03125-18.867188 4.261718-25.179688 11.597656-6.3125-7.335938-15.503906-11.566406-25.179687-11.597656h-100.722656c-9.679688.03125-18.867188 4.261718-25.179688 11.597656-6.3125-7.335938-15.503906-11.566406-25.179687-11.597656h-100.722656c-18.542969 0-33.574219 15.03125-33.574219 33.570312v50.363281c0 13.90625 11.273437 25.179688 25.179687 25.179688 2.867188-.027344 5.707032-.550781 8.394532-1.542969v89.675781c-.015626 11.945313 7.210937 22.707031 18.277343 27.210938 11.0625 4.5 23.753907 1.847656 32.082031-6.714844 8.332032 8.5625 21.023438 11.214844 32.085938 6.714844 11.0625-4.503907 18.292969-15.265625 18.277344-27.210938v-89.675781c8.667968 3.226562 18.417968 1.277344 25.179687-5.039062 6.761719 6.316406 16.511719 8.265624 25.179688 5.039062v89.675781c-.015625 11.945313 7.210937 22.707031 18.277343 27.210938 11.0625 4.5 23.753907 1.847656 32.082032-6.714844 8.332031 8.5625 21.023437 11.214844 32.085937 6.714844 11.0625-4.503907 18.292969-15.265625 18.277344-27.210938v-89.675781c8.667969 3.226562 18.417969 1.277344 25.179687-5.039062 6.761719 6.316406 16.511719 8.265624 25.179688 5.039062zm83.933594 0c0 6.953125-5.636719 12.589844-12.589844 12.589844s-12.589844-5.636719-12.589844-12.589844v-37.773437c0-4.632813-3.757812-8.390625-8.394531-8.390625-4.632813 0-8.390625 3.757812-8.390625 8.390625v37.773437c0 6.953125-5.636719 12.589844-12.589844 12.589844s-12.589844-5.636719-12.589844-12.589844v-71.347656h67.144532zm-302.164063 0c0 6.953125-5.636719 12.589844-12.589843 12.589844-6.953126 0-12.589844-5.636719-12.589844-12.589844v-37.773437c0-4.632813-3.757813-8.390625-8.394532-8.390625-4.632812 0-8.390624 3.757812-8.390624 8.390625v37.773437c0 6.953125-5.636719 12.589844-12.589844 12.589844s-12.589844-5.636719-12.589844-12.589844v-71.347656h67.144531zm25.179688-104.917969c-4.632813 0-8.390625-3.757812-8.390625-8.394531v-41.96875c0-4.632812-3.757813-8.394531-8.394532-8.394531-4.636718 0-8.394531 3.761719-8.394531 8.394531v67.148438h-67.144531v-67.148438c0-4.632812-3.757812-8.394531-8.394531-8.394531s-8.394531 3.761719-8.394531 8.394531v41.96875c0 4.636719-3.757813 8.394531-8.394532 8.394531-4.632812 0-8.390625-3.757812-8.390625-8.394531v-50.363281c0-9.269531 7.515625-16.785156 16.785157-16.785156h100.722656c9.269531 0 16.785156 7.515625 16.785156 16.785156v50.363281c0 4.636719-3.757812 8.394531-8.394531 8.394531zm125.902343 104.917969c0 6.953125-5.636718 12.589844-12.589843 12.589844s-12.589844-5.636719-12.589844-12.589844v-37.773437c0-4.632813-3.757813-8.390625-8.394531-8.390625-4.632813 0-8.390625 3.757812-8.390625 8.390625v37.773437c0 6.953125-5.636719 12.589844-12.589844 12.589844s-12.589844-5.636719-12.589844-12.589844v-71.347656h67.144531zm25.179688-104.917969c-4.632812 0-8.390625-3.757812-8.390625-8.394531v-41.96875c0-4.632812-3.757813-8.394531-8.394531-8.394531-4.636719 0-8.394532 3.761719-8.394532 8.394531v67.148438h-67.144531v-67.148438c0-4.632812-3.757812-8.394531-8.394531-8.394531s-8.394531 3.761719-8.394531 8.394531v41.96875c0 4.636719-3.757813 8.394531-8.394531 8.394531-4.632813 0-8.390626-3.757812-8.390626-8.394531v-50.363281c0-9.269531 7.515626-16.785156 16.785157-16.785156h100.722656c9.269531 0 16.785156 7.515625 16.785156 16.785156v50.363281c0 4.636719-3.757812 8.394531-8.394531 8.394531zm33.574219 0c-4.632813 0-8.390625-3.757812-8.390625-8.394531v-50.363281c0-9.269531 7.515625-16.785156 16.785156-16.785156h100.722656c9.269532 0 16.785156 7.515625 16.785156 16.785156v50.363281c0 4.636719-3.757812 8.394531-8.394531 8.394531-4.632812 0-8.390625-3.757812-8.390625-8.394531v-41.96875c0-4.632812-3.757812-8.394531-8.394531-8.394531s-8.394531 3.761719-8.394531 8.394531v67.148438h-67.144532v-67.148438c0-4.632812-3.761718-8.394531-8.394531-8.394531-4.636719 0-8.394531 3.761719-8.394531 8.394531v41.96875c0 4.636719-3.757812 8.394531-8.394531 8.394531zm0 0"/><path d="m453.035156 154.03125c.019532-10.042969-5.425781-19.304688-14.210937-24.171875-54.785157-30.484375-240.472657-129.8476562-329.921875-129.8476562-34.59375-.3437498-68.921875 6.0742192-101.054688 18.8945312-3.121094 1.28125-5.585937 3.765625-6.84375 6.894531-1.257812 3.125-1.195312 6.628907.167969 9.707031 11.542969 26.246094 31.351563 70.3125 42.152344 94.351563 1.441406 3.195313 4.148437 5.644531 7.472656 6.761719 3.324219 1.113281 6.960937.792968 10.035156-.886719l15.992188-8.726563c14.136719-7.964843 31.632812-6.867187 44.667969 2.792969 8.933593 7.089844 16.464843 15.792969 22.203124 25.652344 8.851563 14.695313 18.589844 29.886719 28.855469 45.179687 2.054688 3.039063 4.054688 5.875 5.875 8.578126l2.945313 4.246093c4.675781 6.644531 12.109375 10.808594 20.210937 11.324219 3.148438 26.46875 26.378907 45.902344 52.988281 44.324219 26.613282-1.578125 47.382813-23.617188 47.382813-50.273438 0-.3125-.042969-.589843-.050781-.890625 10.121094-18.003906 18.875-37.585937 16.785156-59.226562-1.085938-9.914063-3.96875-19.550782-8.511719-28.433594l82.660157 39.160156c-23.097657 4.582032-39.9375 24.558594-40.546876 48.097656-.609374 23.539063 15.175782 44.359376 38.003907 50.128907 22.832031 5.769531 46.609375-5.050781 57.257812-26.054688 10.648438-21.003906 5.316407-46.582031-12.832031-61.585937 1.890625-.644532 3.703125-1.488282 5.414062-2.519532 8.050782-5.085937 12.921876-13.953124 12.902344-23.476562zm-235.445312-17.070312c.375-1.609376 1.5-2.9375 3.019531-3.574219 8.929687-1.292969 18.03125.550781 25.753906 5.210937 11.21875 4.730469 19.089844 15.054688 20.679688 27.128906.035156 1.777344-.082031 3.554688-.351563 5.3125-14.519531-4.359374-30.21875-2.117187-42.933594 6.132813-6.117187-14.148437-10.15625-28.308594-6.167968-40.210937zm34 115.441406c-17.804688-.046875-32.464844-14.003906-33.386719-31.785156 1.617187-1.03125 3.121094-2.226563 4.488281-3.574219 6.246094-6.238281 9.011719-15.152344 7.386719-23.828125 10.867187-8.949219 26.121094-10.28125 38.375-3.359375 9.640625 5.5625 15.855469 15.578125 16.5625 26.683593 0 .261719.074219.695313.117187.957032.042969.441406.054688.890625.03125 1.335937 0 8.902344-3.535156 17.441407-9.832031 23.738281-6.296875 6.296876-14.835937 9.832032-23.742187 9.832032zm151.082031 0c-18.539063 0-33.570313-15.03125-33.570313-33.570313 0-18.542969 15.03125-33.574219 33.570313-33.574219 18.542969 0 33.574219 15.03125 33.574219 33.574219 0 18.539063-15.03125 33.570313-33.574219 33.570313zm28.480469-89.09375c-3.171875 2.070312-7.199219 2.328125-10.609375.679687l-131.777344-62.449219c-3.652344-1.683593-7.984375-.5-10.273437 2.804688-2.332032 3.351562-1.980469 7.882812.839843 10.835938 12.144531 12.25 20.066407 28.046874 22.621094 45.105468.675781 11.609375-1.636719 23.199219-6.714844 33.660156-3.265625-5.789062-7.652343-10.867187-12.910156-14.933593 1.132813-4.566407 1.625-9.265625 1.460937-13.964844-1.75-18.316406-13.304687-34.234375-30.175781-41.574219-9.230469-4.433594-26.582031-11.027344-39.574219-5.546875-5.957031 2.515625-10.496093 7.539063-12.398437 13.722657-6.714844 20.144531 1.371094 41.679687 11.039063 61.734374 0 .089844.167968.382813.277343.628907.109375.242187.117188.425781.183594.644531 1.296875 3.660156.390625 7.742188-2.332031 10.507812-2.140625 2.113282-5.09375 3.1875-8.09375 2.949219-2.996094-.242187-5.742188-1.773437-7.519532-4.199219l-2.980468-4.296874c-1.820313-2.617188-3.777344-5.429688-5.773438-8.394532-10.070312-15.039062-19.65625-30.003906-28.402344-44.484375-6.8125-11.652343-15.75-21.925781-26.347656-30.28125-18.3125-13.710937-42.980468-15.355469-62.949218-4.199219l-12.019532 6.566407c-10.460937-23.378907-27.390625-61.054688-38.402344-86.019531 28.949219-10.878907 59.660157-16.304688 90.582032-16.003907 87.609375 0 283.398437 106.378907 321.804687 127.722657 3.34375 1.902343 5.445313 5.421874 5.535157 9.265624.089843 3.847657-1.839844 7.457032-5.089844 9.519532zm0 0"/></svg>