<?xml version="1.0" encoding="iso-8859-1"?>
<!-- Generator: Adobe Illustrator 19.0.0, SVG Export Plug-In . SVG Version: 6.00 Build 0)  -->
<svg version="1.1" id="Layer_1" xmlns="http://www.w3.org/2000/svg" xmlns:xlink="http://www.w3.org/1999/xlink" x="0px" y="0px"
	 viewBox="0 0 336.338 336.338" style="enable-background:new 0 0 336.338 336.338;" xml:space="preserve">
<g id="XMLID_237_">
	<path id="XMLID_238_" d="M291.34,95.509c-4.717,0-9.397,0.744-13.912,2.211c-18.597,6.043-30.577,23.121-31.072,41.639
		l-22.692,7.373c-8.913-14.581-23.414-25.38-40.497-29.433l0.002-23.847c17.459-6.191,30.001-22.864,30.001-42.42
		c0-24.813-20.186-45-45-45s-45,20.188-45,45c0,19.555,12.541,36.228,29.999,42.42l-0.002,23.847
		c-17.105,4.058-31.622,14.877-40.534,29.486l-22.648-7.402c-0.485-18.526-12.469-35.618-31.073-41.663
		c-4.515-1.467-9.195-2.211-13.912-2.211c-19.55,0-36.746,12.499-42.792,31.104c-7.667,23.599,5.294,49.035,28.892,56.702
		c4.515,1.468,9.195,2.211,13.912,2.211c14.32,0,27.371-6.711,35.708-17.609l22.674,7.411c-0.137,1.719-0.227,3.451-0.227,5.205
		c0,16.151,5.935,30.933,15.72,42.313l-14.028,19.309c-4.111-1.22-8.403-1.853-12.783-1.853c-14.371,0-27.99,6.935-36.433,18.552
		c-14.583,20.073-10.116,48.271,9.957,62.855c7.74,5.624,16.877,8.597,26.425,8.597c14.372,0,27.99-6.936,36.43-18.551
		c11.495-15.819,11.149-36.68,0.665-51.952l14.015-19.29c7.709,3.229,16.165,5.02,25.033,5.02c8.822,0,17.235-1.774,24.912-4.972
		l14.114,19.282c-10.457,15.269-10.791,36.107,0.693,51.91c8.439,11.616,22.058,18.552,36.43,18.553c0.002,0,0.002,0,0.002,0
		c9.547,0,18.684-2.973,26.424-8.596c20.073-14.586,24.54-42.783,9.956-62.857c-8.441-11.616-22.061-18.551-36.432-18.551
		c-4.396,0-8.705,0.638-12.832,1.867l-14.072-19.225c9.836-11.394,15.805-26.214,15.805-42.412c0-1.775-0.092-3.529-0.232-5.269
		l22.673-7.366c8.336,10.908,21.394,17.627,35.722,17.628c0.001,0,0.002,0,0.003,0c4.715,0,9.396-0.744,13.91-2.211
		c23.598-7.667,36.559-33.104,28.892-56.703C328.086,108.008,310.89,95.509,291.34,95.509z"/>
</g>
<g>
</g>
<g>
</g>
<g>
</g>
<g>
</g>
<g>
</g>
<g>
</g>
<g>
</g>
<g>
</g>
<g>
</g>
<g>
</g>
<g>
</g>
<g>
</g>
<g>
</g>
<g>
</g>
<g>
</g>
</svg>
