<?xml version="1.0" encoding="iso-8859-1"?>
<!-- Generator: Adobe Illustrator 19.0.0, SVG Export Plug-In . SVG Version: 6.00 Build 0)  -->
<svg version="1.1" id="Capa_1" xmlns="http://www.w3.org/2000/svg" xmlns:xlink="http://www.w3.org/1999/xlink" x="0px" y="0px"
	 viewBox="0 0 512 512" style="enable-background:new 0 0 512 512;" xml:space="preserve">
<g>
	<g>
		<path d="M301,226c-16.538,0-30,13.462-30,30c0,16.538,13.462,30,30,30c16.538,0,30-13.462,30-30C331,239.462,317.538,226,301,226z
			"/>
	</g>
</g>
<g>
	<g>
		<path d="M211,226c-16.538,0-30,13.462-30,30c0,16.538,13.462,30,30,30c16.538,0,30-13.462,30-30C241,239.462,227.538,226,211,226z
			"/>
	</g>
</g>
<g>
	<g>
		<path d="M256,91c-90.981,0-165,74.019-165,165s74.019,165,165,165s165-74.019,165-165S346.981,91,256,91z M301,316
			c-18.007,0-33.995-8.134-45-20.729C244.995,307.866,229.007,316,211,316c-33.091,0-60-26.909-60-60s26.909-60,60-60
			c18.007,0,33.995,8.134,45,20.729C267.005,204.134,282.993,196,301,196c33.091,0,60,26.909,60,60S334.091,316,301,316z"/>
	</g>
</g>
<g>
	<g>
		<path d="M256,0c-8.291,0-15,6.709-15,15s6.709,15,15,15c124.072,0,226,101.928,226,226S380.072,482,256,482S30,380.072,30,256
			c0-60.317,26.401-118.101,69-160.151V121c0,8.291,6.209,15,14.5,15s15.5-6.709,15.5-15V61c0-8.291-7.209-15-15.5-15h-60
			c-8.291,0-15,6.709-15,15s6.709,14.9,15,14.9h22.562C28.693,123.42,0,188.33,0,256c0,140.61,115.39,256,256,256
			s256-115.39,256-256S396.61,0,256,0z"/>
	</g>
</g>
<g>
</g>
<g>
</g>
<g>
</g>
<g>
</g>
<g>
</g>
<g>
</g>
<g>
</g>
<g>
</g>
<g>
</g>
<g>
</g>
<g>
</g>
<g>
</g>
<g>
</g>
<g>
</g>
<g>
</g>
</svg>
