<svg height="512pt" viewBox="0 0 512.00047 512" width="512pt" xmlns="http://www.w3.org/2000/svg"><path d="m404.074219 155c-1.351563-4.523438-3.144531-8.859375-5.335938-12.953125l24.882813-24.882813-28.285156-28.28125-24.734376 24.730469c-4.28125-2.355469-8.835937-4.261719-13.601562-5.6875v-34.925781h-40v34.925781c-4.597656 1.375-9 3.199219-13.148438 5.4375l-25.894531-25.894531-28.285156 28.28125 25.832031 25.835938c-2.304687 4.226562-4.175781 8.71875-5.578125 13.414062h-36.925781v40h36.925781c1.421875 4.765625 3.332031 9.320312 5.6875 13.605469l-25.234375 25.234375 28.285156 28.285156 25.382813-25.386719c4.09375 2.191407 8.425781 3.984375 12.953125 5.335938v35.925781h40v-35.925781c4.695312-1.402344 9.1875-3.273438 13.414062-5.578125l26.332032 26.332031 28.285156-28.285156-26.394531-26.394531c2.238281-4.148438 4.0625-8.550782 5.4375-13.148438h36.921875v-40zm-67.074219 50c-16.542969 0-30-13.457031-30-30s13.457031-30 30-30 30 13.457031 30 30-13.457031 30-30 30zm0 0"/><path d="m337 0c-56.476562 0-106.78125 26.898438-138.800781 68.550781-1.179688 1.128907-5.273438 7.238281-5.273438 7.238281-3.066406 4.4375-171.71875 275.078126-172.066406 275.824219-13.640625 17.582031-21.535156 39.839844-20.8125 63.921875 1.574219 52.601563 44.5 95.21875 97.109375 96.4375 22.613281.523438 43.585938-6.546875 60.554688-18.828125l267.191406-166.875c52.046875-30.359375 87.097656-86.796875 87.097656-151.269531 0-96.496094-78.503906-175-175-175zm-178.003906 413.132812c-.328125 32.621094-26.875 58.886719-59.496094 58.867188-33.75 0-61.027344-28.246094-59.433594-62.34375 1.425782-30.449219 26.140625-55.164062 56.59375-56.589844 34.09375-1.59375 62.339844 25.683594 62.339844 59.433594zm39.691406 7.257813c.207031-2.601563.3125-5.234375.3125-7.890625 0-54.863281-44.632812-99.5-99.5-99.5-2.609375 0-5.195312.101562-7.75.300781l71.808594-114.980469c10.425781 77.933594 72.332031 139.796876 150.292968 150.144532zm138.3125-110.390625c-74.4375 0-135-60.5625-135-135 0-23.511719 6.046875-45.636719 16.660156-64.910156l7.855469-12.578125c24.449219-34.753907 64.859375-57.511719 110.484375-57.511719 74.441406 0 135 60.5625 135 135 .011719 73.75-61.25 135.003906-135 135zm0 0"/></svg>